<svg width="400" height="400" viewBox="0 0 400 400" fill="none" xmlns="http://www.w3.org/2000/svg">
<path d="M212.693 185.586C199.653 185.586 185.02 191.764 173.315 203.47C155.879 220.907 150.717 245.57 160.442 260.988C161.774 260.108 163.536 258.669 165.806 256.256C173.181 248.411 179.493 239.622 184.562 230.116C185.467 228.418 186.342 226.68 187.218 224.954C189.852 219.731 192.567 214.349 196.349 209.159C203.401 199.484 213.582 192.017 224.993 187.686C221.175 186.297 217.028 185.586 212.693 185.586Z" fill="white"/>
<path d="M298.442 0H101.563C95.0529 0 89.6297 4.74528 88.5815 10.9635H311.423C310.375 4.74528 304.952 0 298.442 0Z" fill="white"/>
<path d="M107.084 311.426L117.208 388.418L117.205 388.411C118.074 395.02 123.754 400 130.414 400H269.591C276.252 400 281.932 395.02 282.798 388.411L292.922 311.426H107.084Z" fill="white"/>
<path d="M87.465 162.227L105.33 298.092H294.676L312.542 162.227H87.465ZM236.121 266.276C222.065 280.332 203.966 288.009 187.205 288.009C179.669 288.009 172.406 286.458 165.902 283.236C161.765 281.178 158.048 278.516 154.848 275.314C154.356 274.825 153.875 274.298 153.393 273.764C134.975 253.361 139.587 218.348 163.887 194.045C188.78 169.148 225.238 165.093 245.157 185.008C245.235 185.085 245.691 185.568 245.766 185.652C249.509 189.604 252.338 193.999 254.343 198.888C262.895 219.746 255.574 246.829 236.121 266.276Z" fill="white"/>
<path d="M242.006 203.938C241.075 201.673 239.801 199.632 238.374 197.705C225.914 200.007 214.396 207.033 207.123 217.012C203.982 221.321 201.514 226.217 199.125 230.951C198.2 232.78 197.283 234.596 196.329 236.387C190.701 246.934 183.698 256.693 175.518 265.391C173.695 267.332 171.942 268.962 170.232 270.333C170.769 270.644 171.265 271.011 171.827 271.29C187.729 279.16 210.3 273.23 226.694 256.849C242.146 241.4 248.442 219.642 242.006 203.938Z" fill="white"/>
<path d="M336.241 23.9519L319.883 23.9731C319.355 24.1073 318.846 24.297 318.276 24.297H81.7301C81.6886 24.297 81.6553 24.2742 81.6154 24.2742L63.3187 24.297L57.4365 46.9858H66.4673H333.54H342.563L336.241 23.9519Z" fill="white"/>
<path d="M74.0666 60.3191L85.7105 148.893H314.294L325.938 60.3191H74.0666Z" fill="white"/>
</svg>
