<svg width="50" height="50" viewBox="0 0 50 50" fill="none" xmlns="http://www.w3.org/2000/svg">
<path fill-rule="evenodd" clip-rule="evenodd" d="M4.16663 13.5416C4.16663 8.36396 8.36396 4.16663 13.5416 4.16663H25C29.6023 4.16663 33.3333 7.89758 33.3333 12.5V14.5833C33.3333 15.7339 32.4006 16.6666 31.25 16.6666C30.0993 16.6666 29.1666 15.7339 29.1666 14.5833V12.5C29.1666 10.1988 27.3012 8.33329 25 8.33329H13.5416C10.6651 8.33329 8.33329 10.6651 8.33329 13.5416V36.4583C8.33329 39.3347 10.6651 41.6666 13.5416 41.6666H25C27.3012 41.6666 29.1666 39.8012 29.1666 37.5V35.4166C29.1666 34.266 30.0993 33.3333 31.25 33.3333C32.4006 33.3333 33.3333 34.266 33.3333 35.4166V37.5C33.3333 42.1022 29.6023 45.8333 25 45.8333H13.5416C8.36396 45.8333 4.16663 41.636 4.16663 36.4583V13.5416ZM38.1102 17.2768C38.9237 16.4632 40.2429 16.4632 41.0564 17.2768L47.3064 23.5268C48.12 24.3404 48.12 25.6595 47.3064 26.4731L41.0564 32.7231C40.2429 33.5366 38.9237 33.5366 38.1102 32.7231C37.2966 31.9095 37.2966 30.5904 38.1102 29.7768L40.8037 27.0833H22.9166C21.766 27.0833 20.8333 26.1506 20.8333 25C20.8333 23.8493 21.766 22.9166 22.9166 22.9166H40.8037L38.1102 20.2231C37.2966 19.4095 37.2966 18.0904 38.1102 17.2768Z" fill="white"/>
</svg>
